<?xml version="1.0" encoding="UTF-8" standalone="no"?>
<!-- Created with Inkscape (http://www.inkscape.org/) -->

<svg
   xmlns:dc="http://purl.org/dc/elements/1.1/"
   xmlns:cc="http://creativecommons.org/ns#"
   xmlns:rdf="http://www.w3.org/1999/02/22-rdf-syntax-ns#"
   xmlns:svg="http://www.w3.org/2000/svg"
   xmlns="http://www.w3.org/2000/svg"
   xmlns:sodipodi="http://sodipodi.sourceforge.net/DTD/sodipodi-0.dtd"
   xmlns:inkscape="http://www.inkscape.org/namespaces/inkscape"
   width="160mm"
   height="90mm"
   viewBox="0 0 160 90"
   version="1.1"
   id="svg8"
   inkscape:version="0.92.2 (5c3e80d, 2017-08-06)"
   sodipodi:docname="example.svg">
  <defs
     id="defs2" />
  <sodipodi:namedview
     id="base"
     pagecolor="#ffffff"
     bordercolor="#666666"
     borderopacity="1.0"
     inkscape:pageopacity="0.0"
     inkscape:pageshadow="2"
     inkscape:zoom="0.98994949"
     inkscape:cx="556.35207"
     inkscape:cy="-209.20799"
     inkscape:document-units="mm"
     inkscape:current-layer="layer1"
     showgrid="false"
     inkscape:snap-global="false"
     inkscape:window-width="2488"
     inkscape:window-height="1417"
     inkscape:window-x="-8"
     inkscape:window-y="-8"
     inkscape:window-maximized="1" />
  <metadata
     id="metadata5">
    <rdf:RDF>
      <cc:Work
         rdf:about="">
        <dc:format>image/svg+xml</dc:format>
        <dc:type
           rdf:resource="http://purl.org/dc/dcmitype/StillImage" />
        <dc:title></dc:title>
      </cc:Work>
    </rdf:RDF>
  </metadata>
  <g
     inkscape:label="Layer 1"
     inkscape:groupmode="layer"
     id="layer1"
     transform="translate(0,-157.71428)">
    <path
       style="opacity:1;fill:#6240a7;fill-opacity:1;stroke:none;stroke-width:0.26458332;stroke-miterlimit:4;stroke-dasharray:none;stroke-opacity:1"
       d="m -0.37797618,157.56696 v 10.77232 l 4.53571428,-0.18899 0.3779761,-7.37054 5.6696428,0.56697 -0.188988,-3.77976 z"
       id="path815"
       inkscape:connector-curvature="0" />
    <path
       style="opacity:1;fill:#6240a7;fill-opacity:1;stroke:none;stroke-width:0.26458332;stroke-miterlimit:4;stroke-dasharray:none;stroke-opacity:1"
       d="m 146.46577,244.1235 8.88244,-0.37797 0.56697,-7.74851 4.53571,0.56696 0.18899,11.33929 -14.17411,0.18898 z"
       id="path817"
       inkscape:connector-curvature="0" />
    <path
       style="opacity:1;fill:#6240a7;fill-opacity:1;stroke:none;stroke-width:0.33011904;stroke-miterlimit:4;stroke-dasharray:none;stroke-opacity:1"
       d="m 1.1909113,198.7074 1.3952587,24.62741 13.487501,-1.67371 -1.395258,-5.49932 -9.0691821,2.15191 v -5.26023 l 3.02306,-1.19551 -1.162715,-4.78202 -2.790518,-0.2391 v -3.82561 l 8.1390101,-1.67371 -1.39526,-4.54293 z"
       id="path819"
       inkscape:connector-curvature="0" />
    <path
       style="opacity:1;fill:#6240a7;fill-opacity:1;stroke:none;stroke-width:0.33011904;stroke-miterlimit:4;stroke-dasharray:none;stroke-opacity:1"
       d="m 21.422163,220.7047 4.185778,-14.58517 -11.045801,-9.62383 4.999679,-0.89662 11.627155,9.08584 4.650864,-11.71594 h 5.813578 l -6.511208,14.58516 7.906465,10.28135 -8.604095,-0.2391 -4.41832,-9.56405 -4.883404,12.19416 z"
       id="path821"
       inkscape:connector-curvature="0"
       sodipodi:nodetypes="ccccccccccccc" />
    <path
       style="opacity:1;fill:#6240a7;fill-opacity:1;stroke:none;stroke-width:0.33011904;stroke-miterlimit:4;stroke-dasharray:none;stroke-opacity:1"
       d="m 62.117301,190.5782 -8.371733,0.95585 -3.255604,24.14977 4.650679,-0.23929 2.500203,-11.71595 h 3.488331 l 4.708544,10.52017 5.813668,-0.47792 z m -4.41859,4.36341 h 1.220851 l 1.918388,3.5867 -2.790154,0.0595 z"
       id="path823"
       inkscape:connector-curvature="0" />
    <path
       style="opacity:1;fill:#6240a7;fill-opacity:1;stroke:none;stroke-width:0.33011904;stroke-miterlimit:4;stroke-dasharray:none;stroke-opacity:1"
       d="m 75.837255,212.57526 -0.93017,-22.7146 5.581032,-0.47821 7.906469,10.28135 4.883404,-10.99865 5.81358,-0.7173 1.86034,23.19281 -4.65086,0.2391 -1.39526,-16.97619 -5.581034,11.47686 -9.999352,-9.32494 0.465085,14.58517 z"
       id="path825"
       inkscape:connector-curvature="0" />
    <path
       style="opacity:1;fill:#6240a7;fill-opacity:1;stroke:none;stroke-width:0.33011904;stroke-miterlimit:4;stroke-dasharray:none;stroke-opacity:1"
       d="m 117.69529,185.31779 -13.72059,1.913 2.09325,23.90983 5.81367,-0.47792 -1.16299,-11.23803 10.23227,-2.15164 2.55742,-5.73898 z m 0.23209,4.30391 0.23272,4.30392 -7.67419,1.19513 0.23272,-4.54255 z"
       id="path827"
       inkscape:connector-curvature="0" />
    <path
       style="opacity:1;fill:#6240a7;fill-opacity:1;stroke:none;stroke-width:0.33011904;stroke-miterlimit:4;stroke-dasharray:none;stroke-opacity:1"
       d="m 127.22929,185.55683 1.62779,21.75821 12.55734,-0.9564 -0.93017,-4.06473 -8.6041,0.71731 -0.93017,-18.17169 z"
       id="path829"
       inkscape:connector-curvature="0" />
    <path
       style="opacity:1;fill:#6240a7;fill-opacity:1;stroke:none;stroke-width:0.33011904;stroke-miterlimit:4;stroke-dasharray:none;stroke-opacity:1"
       d="m 146.06528,184.60043 1.16271,21.5191 10.2319,-1.9128 0.23255,-4.78203 -7.20884,1.1955 -0.69763,-5.49932 2.55797,-0.9564 v -4.78203 l -2.32543,0.47821 -0.23254,-3.10833 8.37155,-0.23909 -0.93017,-5.26022 z"
       id="path831"
       inkscape:connector-curvature="0" />
  </g>
</svg>
