<?xml version="1.0" encoding="UTF-8" standalone="no"?>
<!-- Created with Inkscape (http://www.inkscape.org/) -->

<svg
   xmlns:dc="http://purl.org/dc/elements/1.1/"
   xmlns:cc="http://creativecommons.org/ns#"
   xmlns:rdf="http://www.w3.org/1999/02/22-rdf-syntax-ns#"
   xmlns:svg="http://www.w3.org/2000/svg"
   xmlns="http://www.w3.org/2000/svg"
   xmlns:sodipodi="http://sodipodi.sourceforge.net/DTD/sodipodi-0.dtd"
   xmlns:inkscape="http://www.inkscape.org/namespaces/inkscape"
   width="192"
   height="108"
   viewBox="0 0 50.8 28.575001"
   version="1.1"
   id="svg8"
   inkscape:version="0.92.2 (5c3e80d, 2017-08-06)"
   sodipodi:docname="loadingScreen.svg">
  <defs
     id="defs2" />
  <sodipodi:namedview
     id="base"
     pagecolor="#000000"
     bordercolor="#666666"
     borderopacity="1.0"
     inkscape:pageopacity="0"
     inkscape:pageshadow="2"
     inkscape:zoom="8"
     inkscape:cx="47.145604"
     inkscape:cy="39.203227"
     inkscape:document-units="mm"
     inkscape:current-layer="layer1"
     showgrid="false"
     units="px"
     inkscape:window-width="2498"
     inkscape:window-height="1417"
     inkscape:window-x="-8"
     inkscape:window-y="-8"
     inkscape:window-maximized="1" />
  <metadata
     id="metadata5">
    <rdf:RDF>
      <cc:Work
         rdf:about="">
        <dc:format>image/svg+xml</dc:format>
        <dc:type
           rdf:resource="http://purl.org/dc/dcmitype/StillImage" />
        <dc:title />
      </cc:Work>
    </rdf:RDF>
  </metadata>
  <g
     inkscape:label="Layer 1"
     inkscape:groupmode="layer"
     id="layer1"
     transform="translate(0,-268.42494)">
    <text
       xml:space="preserve"
       style="font-style:normal;font-weight:normal;font-size:0.91739976px;line-height:1.25;font-family:sans-serif;letter-spacing:0px;word-spacing:0px;fill:#fafafa;fill-opacity:1;stroke:none;stroke-width:0.02293499"
       x="7.2517471"
       y="275.67368"
       id="javascriptWarning"
       class="javascriptWarning"
       inkscape:label="#text817"><tspan
         sodipodi:role="line"
         id="tspan815"
         x="7.2517471"
         y="275.67368"
         style="fill:#fafafa;fill-opacity:1;stroke-width:0.02293499">Please ensure that JavaScript is enabled.</tspan></text>
    <text
       xml:space="preserve"
       style="font-style:normal;font-weight:normal;font-size:0.91739982px;line-height:1.25;font-family:sans-serif;letter-spacing:0px;word-spacing:0px;display:none;fill:#ffffff;fill-opacity:1;stroke:none;stroke-width:0.02293499"
       x="8.1677942"
       y="278.27689"
       id="loading"
       class="loading"
       inkscape:label="#text817-6"><title
         id="title844">loading</title><tspan
         sodipodi:role="line"
         id="tspan815-7"
         x="8.1677942"
         y="278.27689"
         style="fill:#ffffff;fill-opacity:1;stroke-width:0.02293499">Loading...</tspan></text>
    <text
       xml:space="preserve"
       style="font-style:normal;font-weight:normal;font-size:0.91739982px;line-height:1.25;font-family:sans-serif;letter-spacing:0px;word-spacing:0px;display:none;fill:#ffffff;fill-opacity:1;stroke:none;stroke-width:0.02293499"
       x="7.5350466"
       y="282.453"
       id="downloadFailed"
       class="downloadFailed"
       inkscape:label="#text817-6-1-2"><tspan
         sodipodi:role="line"
         id="tspan815-7-0-6"
         x="7.5350466"
         y="282.453"
         style="fill:#ffffff;fill-opacity:1;stroke-width:0.02293499">Download failed.  Please refresh to try again.</tspan></text>
    <text
       xml:space="preserve"
       style="font-style:normal;font-weight:normal;font-size:0.91739982px;line-height:1.25;font-family:sans-serif;letter-spacing:0px;word-spacing:0px;display:none;fill:#ffffff;fill-opacity:1;stroke:none;stroke-width:0.02293499"
       x="7.7040439"
       y="284.8584"
       id="webAssemblyUnsupported"
       class="webAssemblyUnsupported"
       inkscape:label="#text817-6-1-2-6"><tspan
         sodipodi:role="line"
         id="tspan815-7-0-6-1"
         x="7.7040439"
         y="284.8584"
         style="fill:#ffffff;fill-opacity:1;stroke-width:0.02293499">WebAssembly does not appear to be supported by your browser.</tspan><tspan
         sodipodi:role="line"
         x="7.7040439"
         y="286.00516"
         style="fill:#ffffff;fill-opacity:1;stroke-width:0.02293499"
         id="tspan891">Please ensure that your browser and device are up to date, then refresh to try again.</tspan></text>
    <path
       style="fill:#242529;fill-opacity:1;stroke:none;stroke-width:0.00810433"
       d="m 4.8297016,289.10906 -1.2645604,0.019 -1.3025811,0.77015 -0.8176826,1.15045 -0.095083,1.42619 0.1426172,1.17897 0.5990081,1.27408 1.3216073,0.91275 1.283555,0.19017 1.2645603,-0.45638 1.2930681,-0.75112 0.6370288,-1.22654 0.2567109,-1.15045 -0.2186744,-1.15045 -0.9412894,-1.18851 -0.8176668,-0.80817 z"
       id="polygon158"
       inkscape:connector-curvature="0"
       sodipodi:nodetypes="ccccccccccccccccc" />
    <path
       style="fill:#8ca19f;fill-opacity:1;stroke:none;stroke-width:0.00810433"
       d="m 4.7617143,289.62113 -1.1068929,0.36631 -0.8776015,0.37673 -0.7826932,0.93269 -0.1219877,1.12069 0.1785036,1.18131 0.401526,1.00343 0.9715224,0.79 1.1395821,-0.29202 0.972669,-0.27105 1.0865877,-0.3075 0.792892,-0.95038 0.3056219,-1.1382 -0.460625,-1.12738 -0.7905539,-0.95109 -0.7832243,-0.49801 z"
       id="polygon18"
       inkscape:connector-curvature="0"
       sodipodi:nodetypes="ccccccccccccccccc" />
    <path
       style="fill:#e70500;fill-opacity:1;stroke:none;stroke-width:0.00810433"
       d="m 4.936076,290.50566 -0.5050688,0.6813 -1.085938,2.39846 -0.3126611,0.37627 0.5997363,0.40718 0.4236887,-0.4402 -0.2510942,-0.29045 0.7023415,-1.96396 0.3025503,-0.56384 0.454558,2.49482 -0.3586815,-0.0198 0.1605338,0.44894 0.6549518,0.0294 0.5533531,-0.13503 -0.4315483,-0.30585 z"
       id="polygon4"
       inkscape:connector-curvature="0"
       sodipodi:nodetypes="cccccccccccccccc" />
    <path
       style="fill:#ebdbb3;fill-opacity:1;stroke:none;stroke-width:0.00810433"
       d="m 4.628328,289.47206 -1.1448158,0.10094 -1.024343,0.64476 -0.6645551,1.10358 -0.1405594,1.125 0.2263989,1.1382 0.572115,1.01775 -0.2696589,-1.11771 -0.1521303,-1.09341 0.2186903,-0.98882 0.703573,-0.8272 0.912766,-0.33276 0.922279,-0.42786 0.846206,0.20917 0.8271799,0.54196 0.7202249,0.79284 0.5397452,1.07464 -0.3452413,-1.125 -0.6447375,-0.96494 -0.9121012,-0.73058 z m 0.1813027,1.63836 -0.3642358,0.54692 -0.7725231,2.03363 0.2545741,-0.10161 0.6235902,-1.87993 0.183408,-0.25678 z m 1.4647152,2.81825 -1.2083049,0.10566 1.0041612,0.18798 z"
       id="polygon14"
       inkscape:connector-curvature="0" />
    <path
       style="fill:#283b4c;fill-opacity:1;stroke:none;stroke-width:0.00810433"
       d="m 5.0242213,290.22566 -0.6932842,0.88036 -1.573633,2.40449 0.275104,0.45118 0.4093636,-0.32353 1.023425,-2.37039 0.4335816,-0.66575 0.8209433,3.06915 0.5546243,0.2575 0.2796943,-0.19257 -0.7336317,-0.20174 z m -0.2145906,0.88476 0.3301406,2.41183 -0.380571,0.005 0.3068407,0.50751 -0.072622,-0.40278 0.3169236,0.0462 z m 2.6061911,2.46092 -0.8192655,0.78335 -1.236037,0.11409 -1.0078335,0.44688 -0.9285948,0.47663 1.3230794,0.16698 1.0193569,-0.36506 1.0969812,-0.61173 z m -3.4883759,0.018 -0.2545741,0.10161 0.3829613,0.2377 0.2017535,-0.23384 z"
       id="polygon20"
       inkscape:connector-curvature="0" />
    <text
       xml:space="preserve"
       style="font-style:normal;font-weight:normal;font-size:1.83534253px;line-height:1.25;font-family:sans-serif;letter-spacing:0px;word-spacing:0px;fill:#ffffff;fill-opacity:1;stroke:none;stroke-width:0.04588356"
       x="8.7354879"
       y="292.96692"
       id="text912"><tspan
         sodipodi:role="line"
         id="tspan910"
         x="8.7354879"
         y="292.96692"
         style="fill:#ffffff;fill-opacity:1;stroke-width:0.04588356">Example Spartan Engine Game Bootloader</tspan></text>
    <g
       id="downloading"
       class="downloading"
       inkscape:label="#g850"
       style="display:none;fill:#ffffff;fill-opacity:1">
      <text
         id="text817-6-1"
         y="279.91394"
         x="8.5813112"
         style="font-style:normal;font-weight:normal;font-size:0.91739982px;line-height:1.25;font-family:sans-serif;letter-spacing:0px;word-spacing:0px;fill:#ffffff;fill-opacity:1;stroke:none;stroke-width:0.02293499"
         xml:space="preserve"><tspan
           style="fill:#ffffff;fill-opacity:1;stroke-width:0.02293499"
           y="279.91394"
           x="8.5813112"
           id="tspan815-7-0"
           sodipodi:role="line">Downloading...</tspan></text>
      <path
         inkscape:connector-curvature="0"
         id="rect914"
         transform="matrix(0.26458333,0,0,0.26458333,0,268.42494)"
         d="m 60.482422,41.078125 v 1.830078 h 28.220703 v -1.830078 h -0.851563 v 0.947266 H 61.398438 v -0.947266 z"
         style="opacity:1;fill:#ffffff;fill-opacity:1;stroke:none;stroke-width:0.99999994;stroke-miterlimit:4;stroke-dasharray:none;stroke-opacity:1" />
      <rect
         y="279.29352"
         x="16.386744"
         height="0.11870823"
         width="6.7309337"
         id="progressBar"
         class="progressBar"
         style="opacity:1;fill:#ffffff;fill-opacity:1;stroke:none;stroke-width:0.26388958;stroke-miterlimit:4;stroke-dasharray:none;stroke-opacity:1"
         inkscape:label="#rect919"
         inkscape:transform-center-x="-3.36576"
         inkscape:transform-center-y="-0.003100586" />
    </g>
    <text
       xml:space="preserve"
       style="font-style:normal;font-weight:normal;font-size:0.91739982px;line-height:1.25;font-family:sans-serif;letter-spacing:0px;word-spacing:0px;display:none;fill:#ffffff;fill-opacity:1;stroke:none;stroke-width:0.02293499"
       x="11.165114"
       y="280.73849"
       id="compilingWebAssembly"
       class="compilingWebAssembly"
       inkscape:label="#text817-6-1-2-6"><tspan
         sodipodi:role="line"
         x="11.165114"
         y="280.73849"
         style="fill:#ffffff;fill-opacity:1;stroke-width:0.02293499"
         id="tspan891-5">Compiling WebAssembly...</tspan></text>
  </g>
</svg>
